<?xml version="1.0" standalone="no"?>
<!DOCTYPE svg PUBLIC "-//W3C//DTD SVG 20010904//EN"
 "http://www.w3.org/TR/2001/REC-SVG-20010904/DTD/svg10.dtd">
<svg version="1.0" xmlns="http://www.w3.org/2000/svg"
 width="7500.000000pt" height="5000.000000pt" viewBox="0 0 7500.000000 5000.000000"
 preserveAspectRatio="xMidYMid meet">

<g transform="translate(0.000000,5000.000000) scale(0.100000,-0.100000)"
fill="#000000" stroke="none">
<path d="M24720 31145 l0 -3365 5895 0 5895 0 0 3363 0 3362 -5895 3 -5895 3
0 -3366z m1420 1655 l0 -540 -330 0 -330 0 0 540 0 540 330 0 330 0 0 -540z
m850 0 l0 -540 -330 0 -330 0 0 540 0 540 330 0 330 0 0 -540z m7010 470 l0
-70 -3425 0 -3425 0 0 70 0 70 3425 0 3425 0 0 -70z m730 -295 l0 -75 -3790 0
-3790 0 0 75 0 75 3790 0 3790 0 0 -75z m1010 -330 l0 -75 -4295 0 -4295 0 0
75 0 75 4295 0 4295 0 0 -75z m0 -310 l0 -75 -4295 0 -4295 0 0 75 0 75 4295
0 4295 0 0 -75z m-9600 -1285 l0 -540 -330 0 -330 0 0 540 0 540 330 0 330 0
0 -540z m850 0 l0 -540 -330 0 -330 0 0 540 0 540 330 0 330 0 0 -540z m7010
465 l0 -75 -3425 0 -3425 0 0 75 0 75 3425 0 3425 0 0 -75z m730 -295 l0 -70
-3790 0 -3790 0 0 70 0 70 3790 0 3790 0 0 -70z m1010 -330 l0 -70 -4295 0
-4295 0 0 70 0 70 4295 0 4295 0 0 -70z m0 -310 l0 -70 -4295 0 -4295 0 0 70
0 70 4295 0 4295 0 0 -70z m-9600 -1290 l0 -540 -330 0 -330 0 0 540 0 540
330 0 330 0 0 -540z m850 0 l0 -540 -330 0 -330 0 0 540 0 540 330 0 330 0 0
-540z m7010 470 l0 -70 -3425 0 -3425 0 0 70 0 70 3425 0 3425 0 0 -70z m730
-295 l0 -75 -3790 0 -3790 0 0 75 0 75 3790 0 3790 0 0 -75z m1010 -330 l0
-75 -4295 0 -4295 0 0 75 0 75 4295 0 4295 0 0 -75z m0 -310 l0 -75 -4295 0
-4295 0 0 75 0 75 4295 0 4295 0 0 -75z"/>
<path d="M25985 24905 c-49 -13 -107 -30 -127 -39 -48 -21 -51 -20 -45 5 5 17
3 18 -10 7 -8 -6 -19 -22 -24 -35 -6 -17 -16 -23 -39 -23 -19 0 -30 -5 -30
-14 0 -8 -23 -28 -50 -46 -170 -109 -284 -382 -267 -639 7 -111 19 -141 83
-226 63 -84 155 -237 225 -377 l52 -103 21 45 c17 37 20 63 19 150 -1 73 2
111 11 125 15 22 43 36 173 85 54 21 91 41 107 61 24 28 28 44 41 171 7 60 32
108 75 139 42 31 135 48 341 64 207 15 222 18 254 46 113 100 129 140 129 329
l1 124 -75 12 c-104 16 -252 57 -362 99 -147 57 -183 65 -303 64 -83 0 -132
-6 -200 -24z"/>
<path d="M15290 24390 l0 -300 55 0 55 0 0 300 0 300 -55 0 -55 0 0 -300z"/>
<path d="M36665 24016 c-71 -19 -102 -32 -152 -66 -24 -17 -46 -30 -49 -30 -2
0 -4 21 -5 48 0 42 -1 44 -10 22 -6 -14 -14 -43 -18 -65 -5 -28 -12 -39 -22
-36 -8 2 -23 6 -33 9 -17 5 -17 2 4 -26 l23 -32 -27 -49 c-135 -248 -84 -538
143 -823 122 -153 181 -197 215 -159 32 35 66 126 66 176 0 40 -8 61 -35 105
-40 62 -44 91 -15 120 25 25 29 25 70 -5 19 -14 41 -25 50 -25 41 0 104 104
124 204 12 57 15 61 47 70 24 6 77 1 188 -18 231 -40 285 -42 352 -17 68 26
133 80 160 134 17 32 20 53 17 101 -4 56 -7 62 -50 101 -73 66 -380 190 -598
242 -130 30 -365 41 -445 19z"/>
<path d="M63534 23910 c-28 -4 -73 -15 -100 -24 -47 -15 -52 -15 -102 4 -29
11 -65 19 -80 19 -17 -1 -20 -3 -9 -6 40 -11 11 -21 -75 -25 -175 -10 -250
-58 -328 -209 -34 -66 -56 -94 -103 -133 -62 -51 -110 -117 -128 -176 -17 -60
-22 -186 -10 -263 18 -109 44 -191 64 -195 24 -5 52 58 76 173 35 163 51 207
96 270 43 60 92 112 98 104 2 -2 25 -43 50 -92 106 -201 239 -358 353 -415 55
-28 168 -57 249 -64 l30 -3 -4 -115 c-2 -73 -9 -130 -19 -155 -31 -80 -23
-446 12 -529 13 -31 17 -33 78 -39 165 -15 413 -84 549 -152 202 -102 301
-209 359 -391 57 -178 105 -500 117 -782 3 -84 9 -155 13 -157 4 -3 83 64 176
148 247 223 423 377 562 491 142 117 137 100 73 250 -22 50 -37 93 -35 95 12
12 88 -78 161 -188 2 -3 8 0 14 6 16 16 -43 182 -98 278 -121 211 -314 401
-558 548 -44 27 -165 92 -270 144 -257 129 -336 176 -405 240 -92 85 -103 116
-111 318 -11 269 -58 492 -143 671 -54 114 -81 154 -153 227 -68 69 -152 112
-243 127 -72 11 -82 11 -156 0z"/>
<path d="M45641 23705 c3 -2 35 -9 71 -14 57 -8 144 -38 136 -46 -2 -2 -28 3
-58 11 -64 16 -150 18 -202 4 -90 -25 -153 -161 -153 -330 0 -89 2 -101 34
-163 45 -88 118 -178 163 -200 29 -14 44 -16 79 -8 24 5 45 8 48 6 2 -2 -4
-35 -14 -72 -27 -102 -31 -273 -10 -370 32 -146 108 -276 193 -333 56 -37 99
-44 153 -26 40 14 46 14 74 -2 16 -10 45 -38 63 -62 l34 -44 -5 54 c-3 30 -12
80 -21 110 -10 32 -16 91 -16 145 l0 92 80 12 c137 21 208 52 289 125 19 17
30 24 26 16 -18 -32 -136 -178 -190 -234 -31 -32 -54 -60 -52 -63 9 -8 154 98
204 149 112 116 211 282 277 468 l33 91 52 -57 c71 -77 88 -115 122 -268 33
-150 43 -178 71 -202 26 -24 32 -13 57 96 28 123 34 196 21 273 -20 127 -32
144 -245 346 -180 171 -309 259 -447 305 -123 41 -250 31 -331 -26 -16 -11
-30 -19 -31 -17 -2 2 -13 23 -25 46 -42 84 -130 150 -236 177 -53 14 -256 23
-244 11z"/>
<path d="M45583 23693 c9 -2 23 -2 30 0 6 3 -1 5 -18 5 -16 0 -22 -2 -12 -5z"/>
<path d="M25675 22906 c-61 -15 -158 -66 -204 -108 l-34 -30 7 -157 c10 -215
12 -223 61 -234 22 -5 97 -6 167 -3 l128 7 -20 -46 c-24 -56 -50 -154 -50
-189 0 -23 12 -32 108 -80 59 -29 214 -101 345 -160 l237 -107 98 72 c143 106
250 198 273 236 28 44 20 96 -26 186 -19 38 -35 70 -35 71 0 2 28 6 62 10 34
3 78 14 97 24 l36 17 -1 75 c-1 61 -24 188 -51 283 -6 21 -158 124 -201 136
l-28 8 -33 -271 c-48 -398 -96 -625 -166 -782 l-25 -57 -22 19 c-41 36 -202
229 -283 338 -142 192 -179 262 -317 596 -33 80 -63 148 -66 151 -4 4 -29 1
-57 -5z"/>
<path d="M62648 22850 c-11 -37 -9 -307 2 -418 20 -181 88 -412 122 -412 37 1
40 14 24 100 -22 115 -19 120 10 16 13 -50 26 -91 28 -93 2 -2 39 3 82 10 l79
13 0 110 0 109 -65 0 c-79 0 -102 12 -141 73 -50 80 -114 316 -131 487 -3 30
-3 30 -10 5z"/>
<path d="M35050 22345 c-258 -51 -473 -219 -584 -456 -91 -194 -136 -500 -136
-934 0 -851 177 -1650 446 -2007 192 -257 569 -412 1057 -435 l128 -6 -7 -112
c-4 -74 -3 -118 4 -132 9 -16 6 -47 -13 -134 -67 -322 -87 -549 -84 -989 2
-217 -2 -386 -9 -455 -14 -122 -49 -388 -57 -422 -11 -48 -401 -265 -625 -347
-438 -160 -958 -234 -1380 -197 -201 18 -178 -8 -172 198 3 106 0 226 -7 302
-10 96 -10 160 -2 266 6 77 14 267 18 423 5 239 4 282 -8 282 -20 0 -250 -38
-254 -42 -1 -2 6 -313 16 -693 10 -379 18 -725 19 -767 l0 -77 -82 -31 c-397
-153 -1048 -192 -1660 -98 -43 6 -80 9 -82 7 -10 -9 -55 -259 -80 -434 -112
-800 -132 -1729 -61 -2745 17 -228 62 -720 70 -757 4 -19 12 -23 40 -23 32 0
35 -3 45 -42 6 -24 18 -65 26 -92 8 -27 14 -56 14 -63 0 -11 -207 -13 -1235
-12 l-1235 1 -20 38 c-22 43 -70 87 -118 107 -18 7 -77 22 -131 33 -54 11
-116 26 -138 34 -21 7 -74 15 -117 17 l-79 4 -11 -46 c-17 -66 -46 -110 -95
-144 -38 -27 -52 -30 -128 -34 -48 -2 -104 2 -125 8 -73 22 -137 98 -152 182
l-6 36 -128 7 c-70 3 -170 15 -222 26 -52 11 -97 20 -99 20 -10 0 9 -190 23
-229 9 -24 14 -46 11 -49 -3 -3 -356 -7 -784 -10 l-780 -5 -5 24 c-3 13 -14
69 -26 124 -11 55 -23 110 -26 123 -5 18 -2 22 15 22 13 0 22 8 26 23 2 12
113 810 245 1772 132 963 244 1764 248 1780 14 51 75 -297 101 -576 34 -362
170 -876 405 -1533 43 -122 72 -190 74 -175 3 25 -117 1356 -168 1860 -17 162
-30 330 -30 371 0 206 85 404 205 478 23 14 144 43 379 90 191 38 350 72 355
74 4 3 -21 150 -55 328 -132 674 -230 1238 -254 1456 -23 207 34 367 156 438
41 24 44 29 39 58 -2 17 -12 83 -20 146 -14 105 -28 189 -40 247 -5 22 -7 21
-78 -17 -85 -46 -207 -92 -315 -119 -168 -43 -261 -53 -539 -58 -292 -6 -504
5 -763 38 -146 18 -391 58 -398 64 -2 2 8 21 21 42 74 118 150 306 190 473 23
93 34 161 64 382 l8 57 115 -66 c158 -91 235 -96 307 -20 17 17 122 190 233
382 111 193 204 353 206 356 2 4 -24 1 -59 -6 -34 -7 -89 -16 -122 -20 -33 -4
-123 -24 -200 -45 -405 -109 -803 -185 -1189 -225 -83 -8 -152 -18 -155 -21
-3 -2 -9 -78 -13 -167 -4 -89 -14 -259 -22 -377 -13 -181 -21 -452 -17 -538 1
-14 10 -26 27 -32 21 -8 25 -15 20 -33 -3 -13 -11 -68 -17 -122 -13 -113 -7
-749 10 -1000 30 -441 43 -780 45 -1172 l2 -433 -34 0 c-19 0 -82 7 -141 16
-523 77 -1013 296 -1419 636 -50 43 -94 78 -97 78 -3 0 -5 -112 -5 -249 l0
-250 63 -44 c232 -165 582 -337 872 -430 221 -71 491 -127 687 -143 l86 -7 6
-111 c4 -61 16 -284 27 -496 35 -674 117 -1943 184 -2845 19 -250 28 -331 39
-337 10 -6 12 -17 5 -50 -5 -24 -12 -81 -17 -127 l-7 -84 -11461 -2 c-6304 -2
-11471 -6 -11482 -9 -43 -14 -52 -97 -15 -138 15 -17 1702 -18 35163 -18
33461 0 35148 1 35163 18 38 42 28 127 -17 137 -11 3 -1328 6 -2925 8 l-2905
2 -156 666 c-87 367 -167 697 -178 735 -52 168 -169 361 -302 494 -140 142
-308 246 -498 310 -173 58 -206 60 -883 60 -341 0 -619 2 -619 5 0 3 25 150
55 328 90 535 298 1950 375 2552 25 197 80 700 80 734 0 4 -51 -7 -112 -26
-289 -87 -469 -120 -568 -103 -156 27 -298 161 -345 325 -8 28 -48 246 -90
485 -41 239 -77 444 -79 455 -5 19 -14 20 -258 20 -271 1 -388 14 -606 71 -51
13 -94 24 -96 24 -6 0 -16 -434 -17 -768 0 -208 -5 -355 -11 -373 -6 -16 -24
-37 -42 -47 -62 -33 -234 -11 -424 54 -41 14 -77 22 -82 17 -4 -4 -15 -57 -25
-118 -154 -984 -455 -2368 -737 -3400 l-63 -230 -300 -6 c-327 -7 -363 -12
-544 -78 -332 -121 -616 -411 -735 -751 -19 -55 -346 -1411 -346 -1436 0 -2
-666 -4 -1480 -4 -814 0 -1480 2 -1480 4 0 26 -327 1380 -346 1436 -125 356
-418 645 -774 764 -211 71 -23 66 -2685 66 -2640 0 -2477 4 -2667 -60 -326
-109 -587 -339 -738 -650 -57 -119 -64 -142 -239 -887 l-158 -668 -624 -3
-625 -2 -12 58 c-16 75 -37 95 -136 121 -106 29 -168 60 -250 126 -102 81
-321 225 -344 225 -11 0 -47 -20 -79 -45 -104 -81 -97 -78 -135 -61 -18 8 -47
28 -65 45 -18 17 -34 31 -37 31 -2 0 -14 -15 -25 -34 -16 -25 -21 -50 -21
-102 0 -71 -7 -114 -19 -114 -3 0 -37 26 -76 57 -103 82 -317 223 -340 223
-11 0 -56 -27 -99 -60 -44 -33 -81 -60 -82 -60 -17 0 -61 26 -92 54 l-39 36
-23 -25 c-21 -22 -25 -39 -31 -133 -5 -80 -15 -132 -39 -206 l-32 -99 23 -18
c23 -18 -4 -19 -831 -18 -666 0 -851 3 -836 12 73 46 111 97 122 164 l6 40
142 6 c172 7 287 27 400 68 176 63 304 182 330 304 3 17 26 253 51 525 79 863
164 1763 201 2125 20 193 36 395 35 450 0 115 -25 229 -68 308 -32 59 -120
149 -160 165 -16 6 -172 38 -348 72 -176 34 -321 62 -322 64 -1 1 55 137 126
302 150 351 287 692 330 821 49 146 38 245 -36 303 l-27 21 -19 -38 c-14 -25
-16 -38 -8 -41 20 -7 41 -59 41 -101 0 -74 -151 -464 -422 -1089 l-71 -163
-41 6 -41 6 68 -41 c127 -78 221 -190 274 -328 50 -130 50 -141 -106 -1717
-150 -1527 -144 -1481 -214 -1605 -17 -30 -65 -89 -106 -130 -117 -117 -285
-189 -437 -190 -48 0 -53 2 -78 39 -42 61 -58 125 -58 231 1 92 46 760 117
1725 72 972 115 1436 141 1545 44 178 178 373 312 453 38 23 41 37 8 37 -58 0
-213 -160 -280 -290 -74 -143 -89 -218 -126 -610 -39 -429 -167 -2149 -202
-2718 -13 -219 -7 -293 29 -368 l20 -41 -411 -6 c-461 -6 -418 -13 -458 73
-30 63 -29 99 31 775 169 1919 226 2508 257 2655 37 173 136 334 277 451 57
48 57 49 28 49 -21 0 -44 -14 -85 -51 -113 -103 -210 -263 -247 -407 -28 -111
-75 -556 -174 -1657 -121 -1345 -149 -1668 -149 -1720 0 -55 9 -82 52 -168 2
-4 -155 -7 -349 -7 -402 2 -367 10 -368 -91 -1 -72 35 -146 89 -184 22 -15 40
-29 40 -30 0 -2 -786 -2 -1747 -1 l-1748 1 -3 25 c-5 44 -24 110 -33 110 -4 0
-13 -19 -20 -42 -20 -77 -10 -73 -185 -76 -236 -4 -480 13 -528 37 -73 38
-136 46 -245 31 -123 -16 -198 -9 -313 31 -49 17 -91 29 -92 27 -2 -2 -11 -25
-21 -52 -20 -53 -22 -48 32 -83 14 -10 -34 -12 -232 -10 l-250 2 -3 25 c-5 44
-24 110 -33 110 -4 0 -13 -19 -19 -42 -19 -76 -10 -73 -186 -76 -233 -4 -474
13 -522 37 -69 35 -152 45 -252 31 -115 -17 -198 -8 -311 30 -50 18 -92 30
-93 28 -1 -2 -10 -22 -19 -46 -15 -40 -14 -72 2 -72 4 0 16 -7 27 -15 17 -13
-70 -14 -738 -15 l-758 0 0 54 c0 74 -27 112 -110 153 l-65 33 45 0 45 0 -46
1612 c-26 887 -49 1677 -51 1756 l-4 142 40 11 c23 5 49 13 59 16 22 6 117
150 117 176 0 10 -7 29 -16 43 -9 13 -15 27 -12 29 2 3 44 0 94 -7 139 -17
524 -14 702 6 403 44 760 138 1092 288 212 95 194 95 164 -3 -36 -116 -90
-251 -134 -334 -116 -214 -201 -617 -254 -1210 -42 -468 -56 -797 -63 -1508
l-6 -628 39 -41 c49 -51 113 -82 146 -69 13 5 43 25 68 46 34 29 95 72 137
100 1 0 97 273 213 606 115 332 214 613 220 624 5 11 48 130 94 265 232 672
366 1063 392 1142 15 48 29 86 31 84 2 -1 14 -164 28 -362 14 -197 32 -420 40
-494 58 -515 204 -1132 401 -1688 30 -86 64 -175 75 -198 32 -67 143 -143 186
-127 10 4 56 36 103 72 47 36 86 66 88 67 8 5 265 2269 340 3001 21 205 40
374 43 376 2 2 56 -3 119 -11 165 -20 546 -20 738 1 583 65 1104 244 1525 524
l97 65 0 250 0 250 -37 -32 c-216 -181 -341 -264 -558 -370 -314 -155 -617
-244 -1010 -296 -166 -22 -582 -25 -732 -5 l-103 13 0 33 c0 17 9 137 20 266
11 129 49 610 85 1069 37 459 71 837 76 838 34 12 36 30 43 322 8 304 2 836
-15 1335 -23 712 -65 1216 -125 1527 -68 354 -193 568 -508 877 -96 93 -121
112 -139 107 -12 -3 -60 -9 -107 -12 -130 -10 -224 13 -400 96 -214 101 -263
122 -287 122 -23 1 -60 -23 -136 -85 -32 -27 -70 -46 -110 -57 l-62 -17 -85
29 c-192 65 -506 132 -735 158 -119 13 -265 11 -345 -5z m911 -1061 c173 -33
413 -126 629 -244 58 -32 121 -66 140 -76 19 -11 37 -20 39 -21 5 -3 -191
-294 -367 -545 -185 -265 -245 -384 -229 -451 12 -43 253 -232 794 -619 l272
-194 88 12 c126 18 298 17 361 -1 101 -30 223 -175 222 -264 -1 -20 -20 -98
-43 -175 -44 -141 -67 -181 -112 -192 -14 -3 -92 14 -191 43 -198 57 -228 77
-222 149 l3 43 -103 26 c-57 14 -163 37 -236 50 -261 48 -491 128 -761 262
-283 142 -625 374 -819 556 l-45 42 15 120 c50 426 173 854 386 1353 45 105
65 142 78 142 10 0 55 -7 101 -16z m1894 -1763 c211 -65 231 -88 189 -218
l-16 -50 -231 69 c-128 37 -237 70 -244 72 -21 8 16 123 49 151 41 34 68 32
253 -24z m25424 -3506 c6 -93 23 -318 37 -500 20 -267 27 -443 34 -920 5 -324
12 -683 16 -797 l7 -208 -607 0 c-333 0 -606 1 -606 3 0 2 33 75 74 163 96
207 210 495 282 714 113 345 194 541 468 1140 95 206 194 425 222 487 27 61
52 106 55 100 3 -7 11 -88 18 -182z m-8404 -3000 c216 -45 414 -216 493 -426
17 -46 302 -1234 302 -1260 0 -11 -4637 -13 -4643 -1 -7 11 278 1210 302 1270
76 193 269 364 471 416 83 22 2971 23 3075 1z m8529 -82 c11 -148 36 -425 42
-454 l5 -26 219 -7 c120 -3 236 -4 257 0 l38 6 55 289 55 289 648 0 c726 0
726 0 872 -70 154 -74 281 -212 340 -373 22 -59 304 -1249 298 -1259 -6 -11
-4643 -8 -4643 3 0 18 281 1198 294 1237 75 211 256 382 470 443 54 16 115 18
552 18 l492 1 6 -97z m-30899 -278 c71 -302 190 -687 301 -981 42 -110 50
-124 71 -124 13 0 23 -1 23 -3 0 -1 14 -49 30 -107 17 -58 30 -108 30 -112 0
-5 -155 -8 -345 -8 l-345 0 0 59 c0 65 -19 98 -74 132 l-31 19 70 0 70 0 75
650 c41 357 77 647 80 642 4 -4 24 -79 45 -167z m28545 -227 c113 -6 206 -12
208 -13 2 -2 -52 -81 -120 -176 l-124 -174 28 -70 c42 -110 45 -160 14 -258
-15 -46 -46 -155 -69 -243 l-42 -159 -63 -3 -62 -3 0 176 0 176 -22 -6 c-46
-14 -120 -60 -137 -84 -10 -15 -33 -55 -51 -91 -18 -36 -48 -89 -66 -117 l-34
-53 -290 0 -291 0 33 46 c35 48 99 100 160 129 25 12 80 70 171 179 246 295
353 445 461 648 38 72 62 107 74 107 9 0 109 -5 222 -11z m-17615 -925 c13
-72 52 -126 121 -170 15 -9 -145 -12 -726 -12 -409 -1 -740 3 -735 7 6 4 26
20 46 35 38 28 79 97 79 135 0 14 7 23 18 23 9 1 274 5 587 8 314 4 577 8 586
9 12 1 19 -9 24 -35z m-7759 -166 c15 -15 -6 -18 -107 -15 -96 3 -101 4 -69
15 36 13 164 13 176 0z m1872 7 c51 -14 15 -24 -85 -24 -65 0 -103 4 -97 9 17
17 136 27 182 15z m8367 -14 c4 -6 -22 -10 -72 -10 -54 0 -73 3 -63 10 20 13
127 13 135 0z m800 0 c4 -6 -16 -10 -54 -10 -33 0 -63 5 -66 10 -4 6 16 10 54
10 33 0 63 -4 66 -10z"/>
<path d="M17475 22205 c-85 -19 -200 -73 -238 -112 -36 -39 -57 -165 -40 -246
7 -33 8 -69 2 -97 -43 -227 66 -611 218 -766 30 -30 57 -53 60 -51 2 3 0 22
-6 44 -19 66 -12 94 8 33 l17 -55 43 84 c82 162 158 272 324 471 34 41 69 86
78 100 l16 25 49 -31 c67 -41 137 -130 192 -246 26 -54 50 -97 54 -98 14 0 48
131 54 208 7 81 -6 170 -34 232 -8 19 -38 59 -66 88 l-51 52 -30 168 -30 167
-90 18 c-127 26 -434 32 -530 12z"/>
<path d="M59570 21458 l0 -593 1198 -539 c658 -297 1256 -568 1327 -602 72
-34 160 -76 198 -92 l67 -31 0 164 c0 92 -4 166 -9 170 -6 3 -37 42 -71 86
l-60 80 -6 -30 c-4 -17 -9 -33 -13 -35 -9 -6 -253 102 -270 119 -12 12 -11 46
7 236 12 122 25 226 29 230 9 8 239 -87 266 -110 10 -7 17 -20 17 -27 0 -8 3
-14 8 -15 4 0 28 -3 55 -5 l47 -5 -2 173 -3 172 -403 183 c-222 100 -416 186
-430 191 -15 5 -457 203 -983 441 -526 237 -959 431 -962 431 -4 0 -7 -267 -7
-592z m139 145 c19 -16 23 -34 31 -133 5 -63 10 -124 11 -135 0 -11 10 7 22
40 32 87 32 88 70 69 43 -22 44 -25 52 -116 4 -44 9 -77 12 -74 3 2 16 48 30
102 34 134 36 138 73 119 20 -10 30 -23 30 -38 0 -12 -18 -87 -39 -167 -22
-80 -45 -164 -51 -187 -13 -50 -37 -57 -74 -20 -18 18 -25 40 -30 90 -4 36
-11 78 -15 93 -6 23 -9 19 -30 -43 -32 -91 -40 -99 -80 -79 -17 9 -31 20 -32
24 -18 216 -35 459 -32 465 7 12 30 8 52 -10z m518 -220 c59 -26 114 -51 121
-56 14 -11 16 -73 2 -82 -5 -3 -47 10 -92 29 -45 20 -82 35 -84 33 -1 -1 -4
-21 -6 -45 l-3 -43 70 -31 c39 -17 76 -35 83 -40 14 -12 16 -74 3 -83 -5 -3
-45 10 -88 29 l-78 35 -3 -46 c-2 -25 0 -49 5 -54 4 -4 44 -23 88 -42 78 -33
80 -35 83 -72 2 -21 0 -41 -5 -45 -8 -8 -235 88 -254 107 -7 7 -6 73 6 209 18
221 21 244 35 244 5 0 58 -21 117 -47z m262 -117 c14 -11 14 -19 -5 -291 l-7
-90 79 -34 c44 -19 85 -39 92 -44 15 -12 16 -87 1 -87 -24 0 -252 105 -257
118 -5 15 27 431 35 445 5 9 42 -1 62 -17z m399 -161 c49 -21 110 -80 133
-130 20 -43 25 -115 9 -115 -29 0 -68 31 -73 59 -9 45 -56 91 -99 97 -50 9
-66 -18 -73 -126 -5 -71 -3 -91 12 -120 24 -46 84 -77 119 -61 13 6 24 17 24
26 0 20 39 19 69 -1 17 -12 21 -22 16 -41 -11 -44 -36 -73 -76 -84 -75 -23
-181 41 -225 136 -27 57 -32 166 -13 257 22 100 89 139 177 103z m390 -171
c105 -52 149 -145 138 -290 -9 -106 -19 -141 -53 -176 -64 -66 -203 -11 -266
107 -19 34 -22 55 -21 147 1 130 20 190 68 219 42 25 72 24 134 -7z m298 -146
c6 -7 27 -68 49 -135 21 -68 42 -123 46 -123 4 0 36 38 70 85 67 90 80 96 122
56 17 -16 16 -27 -4 -236 -11 -121 -25 -224 -30 -229 -5 -6 -23 -3 -45 7 -35
17 -36 19 -30 60 3 23 8 80 11 127 l6 85 -23 -30 c-62 -80 -64 -81 -95 -65
-22 12 -34 34 -59 105 l-31 90 -7 -105 c-10 -146 -13 -153 -45 -145 -55 13
-55 14 -36 242 10 114 22 218 26 231 8 21 10 22 37 8 16 -8 33 -21 38 -28z"/>
<path d="M61190 20842 c-20 -16 -23 -30 -27 -118 -5 -92 -3 -102 19 -134 27
-39 63 -56 100 -47 34 9 39 25 46 131 6 104 -9 145 -63 170 -42 20 -48 20 -75
-2z"/>
<path d="M25995 21755 c-5 -2 -22 -6 -37 -9 -59 -13 -94 -63 -329 -470 -128
-223 -236 -403 -240 -401 -3 3 -32 48 -64 102 -70 118 -116 186 -121 180 -2
-2 -37 -91 -78 -199 l-74 -195 -11 -203 c-6 -112 -8 -206 -6 -210 2 -4 19 -10
37 -14 18 -3 54 -10 79 -15 25 -5 70 -12 100 -16 30 -3 108 -12 174 -20 189
-23 420 -43 683 -60 l243 -16 37 33 c63 57 155 124 202 148 41 21 53 22 150
16 58 -3 132 -12 165 -20 33 -8 63 -12 66 -10 4 2 74 120 155 261 138 238 148
261 148 308 0 62 -33 125 -83 158 -20 13 -279 163 -576 334 -494 284 -583 330
-620 318z"/>
<path d="M45529 21705 c-361 -51 -542 -118 -675 -250 -109 -107 -158 -227
-199 -485 -61 -381 -142 -1827 -133 -2389 l3 -243 38 -34 c36 -30 125 -70 135
-60 4 5 23 69 117 391 35 121 73 246 84 277 19 51 92 412 107 528 6 46 5 49
-24 64 l-30 15 49 238 c174 841 345 1439 435 1524 l25 24 57 -60 c85 -89 202
-237 272 -345 123 -190 238 -463 275 -655 20 -105 19 -277 -1 -367 -39 -172
-146 -331 -305 -453 -51 -40 -177 -115 -192 -115 -4 0 -4 15 0 33 9 48 -6 27
-16 -24 -31 -144 -124 -477 -155 -552 -37 -89 -168 -354 -251 -506 l-46 -84
102 6 c56 4 106 10 110 14 3 4 42 157 84 338 43 182 85 361 94 399 l16 68 75
28 c353 128 589 383 681 735 27 103 37 349 20 490 -51 431 -219 794 -514 1111
l-48 52 48 10 c79 17 164 30 238 37 43 4 77 13 89 23 19 18 86 147 86 168 0 7
-40 22 -92 35 -118 28 -409 36 -559 14z"/>
<path d="M46910 21426 c0 -2 28 -51 61 -108 230 -387 433 -851 484 -1108 23
-114 27 -122 36 -75 17 90 41 363 37 429 -9 146 -207 604 -336 778 -43 57 -61
65 -177 78 -103 11 -105 11 -105 6z"/>
<path d="M27618 20997 c3 -375 18 -957 25 -963 3 -3 31 2 63 11 33 8 107 18
166 22 l107 6 -4 26 c-3 14 -9 73 -15 131 -27 250 -47 319 -195 675 -75 182
-140 338 -144 347 -3 9 -5 -105 -3 -255z"/>
<path d="M63812 20678 c-122 -244 -151 -370 -136 -573 l9 -120 75 -3 c137 -6
279 32 301 80 8 19 -1 71 -50 268 -32 135 -72 300 -87 368 -15 67 -31 122 -35
122 -3 0 -38 -64 -77 -142z"/>
<path d="M62035 20454 c-5 -34 -3 -49 7 -55 23 -15 28 -10 28 26 0 24 6 38 16
42 14 5 12 8 -7 19 -35 19 -36 18 -44 -32z"/>
<path d="M48357 20373 c-2 -5 -50 -147 -107 -316 -86 -259 -100 -311 -89 -322
8 -7 85 -36 172 -65 134 -44 161 -50 172 -39 7 8 26 56 43 108 l31 93 -50 58
c-58 67 -89 140 -89 211 0 92 42 139 123 139 44 0 54 -4 88 -38 l38 -39 15 44
c8 24 13 50 10 58 -6 15 -294 115 -331 115 -12 0 -24 -3 -26 -7z"/>
<path d="M32355 20346 c-128 -30 -215 -73 -308 -154 -26 -23 -80 -60 -120 -83
-96 -56 -148 -112 -196 -211 -51 -106 -68 -200 -53 -295 57 -361 84 -464 141
-545 30 -43 52 -61 134 -104 54 -29 116 -69 137 -88 41 -37 128 -84 193 -105
22 -8 37 -19 37 -29 0 -8 -12 -65 -26 -126 l-27 -110 49 -43 c137 -121 324
-163 451 -102 73 35 89 102 53 217 -11 35 -23 95 -26 132 l-7 69 39 6 c86 16
147 72 187 172 9 24 42 73 72 110 75 92 140 222 154 309 44 274 51 410 26 509
-58 226 -248 392 -526 460 -91 22 -309 28 -384 11z m573 -1301 c11 -11 -14
-40 -49 -57 -61 -32 -191 -20 -205 17 -8 21 -7 22 57 40 51 14 183 14 197 0z"/>
<path d="M18224 20284 c17 -137 29 -419 30 -679 0 -238 -3 -306 -17 -377 -14
-68 -87 -598 -87 -630 0 -5 124 -8 275 -8 l275 0 0 68 0 67 41 -67 40 -68 230
0 c126 0 229 -3 229 -8 0 -4 -31 -101 -70 -216 l-69 -209 49 -56 c27 -31 147
-154 267 -274 l219 -218 48 18 c27 10 65 32 85 49 l36 32 -39 78 c-50 104
-168 315 -336 604 -191 327 -259 510 -430 1145 -135 505 -175 598 -284 670
-89 60 -255 108 -422 122 l-76 6 6 -49z"/>
<path d="M17121 20280 c-165 -39 -273 -92 -336 -162 -123 -140 -240 -475 -445
-1273 l-62 -240 -139 -237 c-77 -131 -191 -331 -254 -444 -109 -199 -113 -208
-98 -230 14 -22 126 -84 150 -84 13 0 575 569 656 664 57 67 231 344 355 565
l30 55 6 -35 c3 -18 15 -101 27 -184 11 -82 27 -184 36 -225 28 -139 -4 -319
-119 -667 l-80 -243 -3746 -2 -3747 -3 -56 -26 c-72 -34 -134 -96 -168 -168
l-26 -56 0 -505 0 -505 33 -67 c39 -80 102 -139 178 -168 l55 -20 6227 2 6227
3 53 28 c67 35 124 92 159 159 l28 53 3 496 c3 484 2 498 -18 553 -30 78 -103
155 -182 192 l-63 29 -2467 -3 -2468 -3 178 528 178 528 387 3 c213 1 387 4
387 6 0 18 -101 292 -145 393 -31 70 -150 396 -264 723 l-208 595 -69 2 c-47
1 -108 -7 -193 -27z m383 -1017 c3 -10 8 -44 12 -75 6 -52 4 -58 -12 -58 -11
0 -35 -3 -55 -6 -41 -7 -40 -8 -55 98 -6 45 -5 47 22 51 64 9 83 7 88 -10z
m-149 -28 c0 -16 -11 -21 -73 -30 -59 -9 -75 -9 -84 2 -16 20 -1 30 62 41 75
14 95 11 95 -13z m13 -67 c-3 -20 -12 -24 -78 -34 -80 -12 -83 -12 -86 12 -3
18 7 23 72 34 86 14 96 13 92 -12z"/>
<path d="M62018 20276 c-1 -20 -2 -43 -2 -52 -1 -12 27 -29 88 -55 49 -22 91
-38 93 -36 1 2 -13 33 -32 69 -31 57 -41 67 -82 84 -27 11 -51 21 -55 22 -5 2
-9 -12 -10 -32z"/>
<path d="M63855 19344 c148 -324 421 -613 746 -788 l86 -46 -102 342 c-56 189
-114 390 -130 448 -16 58 -29 105 -29 106 -1 0 -50 -3 -111 -7 -106 -6 -334 2
-443 17 l-53 7 36 -79z"/>
<path d="M31910 18439 c-113 -31 -180 -53 -180 -58 0 -4 25 -15 56 -26 133
-45 274 -152 347 -263 145 -218 151 -511 21 -904 l-36 -107 -47 -16 c-25 -9
-68 -18 -96 -21 -217 -22 -351 -32 -356 -26 -5 6 -31 212 -33 262 -2 34 -220
149 -401 211 -38 13 -71 25 -73 25 -6 3 143 311 216 449 38 72 68 132 66 134
-5 6 -135 -39 -184 -64 -91 -46 -152 -146 -193 -316 -21 -91 -22 -108 -19
-531 2 -334 6 -456 17 -514 15 -78 35 -114 64 -114 12 0 27 -31 55 -117 21
-65 56 -158 78 -207 21 -49 37 -95 34 -101 -6 -18 -332 -177 -446 -219 -300
-109 -608 -174 -965 -202 l-90 -7 65 -13 c144 -30 307 -140 395 -268 30 -44
43 -55 59 -51 12 2 59 12 106 20 353 68 721 201 1005 365 58 33 110 60 116 60
5 0 27 -11 47 -25 20 -14 40 -25 43 -25 4 0 10 17 14 38 4 24 21 54 49 84 60
67 161 189 216 262 19 26 44 59 56 74 98 125 289 432 369 591 30 61 59 111 65
111 23 0 86 70 112 125 15 33 28 65 28 72 0 6 14 45 30 86 38 95 38 113 0 135
-17 9 -28 22 -26 28 17 46 28 182 24 306 -4 128 -8 153 -37 238 -40 118 -105
224 -191 310 -98 100 -280 221 -327 219 -10 0 -34 -5 -53 -10z m20 -1757 c0
-4 -4 -12 -9 -17 -4 -6 -28 -46 -51 -90 -57 -105 -225 -375 -247 -395 -5 -5 0
142 13 336 l7 91 71 17 c39 10 98 28 131 41 66 25 85 29 85 17z"/>
<path d="M45837 17920 c-3 -8 -15 -57 -27 -109 -38 -162 -94 -261 -167 -296
-50 -24 -251 -26 -305 -2 l-37 16 -8 -47 c-13 -75 -9 -908 5 -1082 46 -572
109 -1084 197 -1597 19 -114 35 -216 35 -228 0 -12 -18 -61 -40 -108 -170
-362 -252 -823 -236 -1317 9 -273 7 -266 83 -307 161 -88 353 -128 595 -124
40 1 40 0 54 111 l7 55 16 -60 16 -60 80 -8 c95 -10 313 -2 370 13 22 6 59 18
83 26 l42 16 0 81 c0 46 5 154 10 242 35 544 109 921 289 1461 192 578 307
1012 406 1538 74 393 135 900 151 1260 6 127 5 148 -7 143 -169 -73 -300 -103
-516 -116 -220 -14 -589 11 -737 50 -134 35 -257 183 -331 397 -12 37 -25 60
-28 52z"/>
<path d="M27717 17868 c-84 -112 -88 -180 -32 -543 33 -214 138 -795 143 -790
2 2 -1 104 -7 227 -6 122 -15 347 -21 498 -11 290 -27 567 -36 613 -7 35 -18
34 -47 -5z"/>
<path d="M67043 17400 c-70 -15 -129 -46 -172 -90 -73 -75 -132 -273 -117
-393 9 -72 52 -156 93 -183 19 -13 107 -39 210 -64 216 -51 324 -84 353 -108
21 -17 21 -19 6 -35 -37 -36 -123 -52 -281 -51 -123 0 -161 4 -212 21 -35 12
-63 17 -63 12 0 -19 63 -204 91 -266 67 -150 172 -269 257 -293 20 -5 65 -10
99 -10 59 0 62 -1 91 -38 l30 -37 -50 -33 -49 -33 -69 67 -70 67 -83 -6 c-147
-12 -238 -53 -272 -122 -14 -30 -16 -56 -13 -134 5 -109 24 -159 80 -206 36
-31 32 -31 285 -4 94 10 126 10 135 1 36 -36 -174 -142 -284 -142 -21 0 -38
-3 -38 -6 0 -13 91 -122 137 -166 139 -129 254 -124 423 20 36 30 85 64 110
75 46 20 151 29 167 14 15 -16 -37 -46 -125 -73 -128 -39 -173 -65 -226 -131
-83 -104 -59 -128 119 -120 185 9 368 76 419 155 11 17 27 31 35 30 15 -3 145
-158 175 -209 l17 -29 -434 0 c-422 0 -434 -1 -452 -20 -26 -29 -24 -79 4
-102 22 -17 69 -18 1137 -18 1101 0 1114 0 1134 20 26 26 26 81 2 103 -17 15
-64 17 -465 17 -246 0 -447 2 -447 5 0 2 11 34 25 70 35 93 175 290 238 334
17 12 21 12 29 -3 58 -103 244 -189 471 -216 164 -19 266 6 240 61 -19 43
-104 139 -145 165 -22 14 -95 43 -161 65 -128 42 -167 61 -167 83 0 34 154 25
229 -14 20 -10 62 -41 94 -69 83 -73 134 -105 204 -131 107 -39 188 -13 306
99 58 55 136 146 160 186 3 7 -14 12 -48 13 -126 5 -345 105 -345 158 0 20
116 19 301 -3 166 -19 188 -15 238 42 47 54 73 137 74 235 2 106 -13 148 -67
198 -71 65 -144 93 -290 112 l-79 10 -146 -143 c-137 -133 -255 -227 -287
-227 -45 0 14 105 157 283 l79 97 -99 0 c-105 0 -213 -16 -382 -56 l-105 -25
-18 -116 c-20 -129 -58 -278 -81 -323 -20 -38 -52 -40 -61 -4 -10 39 11 146
55 283 l39 123 -36 -7 c-101 -19 -284 -136 -327 -209 -42 -71 -52 -142 -31
-217 22 -79 56 -137 125 -211 l55 -60 -29 -85 c-31 -91 -81 -179 -161 -284
-27 -35 -65 -99 -84 -142 l-35 -77 -70 0 -70 0 3 111 c5 130 -9 228 -49 354
-15 50 -33 112 -39 138 -18 85 -30 240 -22 311 l7 69 84 43 c151 78 241 161
292 269 60 126 46 241 -44 380 -57 88 -191 229 -248 262 l-36 21 -2 -132 c-3
-203 -26 -356 -62 -414 -27 -45 -50 -39 -68 18 -12 38 -12 63 2 190 9 80 28
204 42 275 l26 130 -28 23 c-61 49 -275 180 -400 244 -117 60 -238 106 -248
96 -2 -2 23 -85 55 -185 33 -100 67 -222 76 -273 15 -84 16 -93 1 -108 -15
-15 -20 -13 -54 24 -21 22 -57 71 -79 109 -49 83 -168 319 -214 425 -18 41
-36 79 -40 84 -5 4 -50 19 -101 32 -103 27 -268 39 -336 24z m917 -1369 c98
-31 128 -69 69 -90 -59 -20 -528 6 -502 29 10 9 154 65 203 79 47 14 154 5
230 -18z m365 -385 c23 -35 80 -199 111 -318 25 -96 26 -112 20 -243 -3 -77
-9 -155 -12 -172 l-6 -33 -72 0 -71 0 -33 48 c-97 141 -125 188 -147 247 -14
36 -25 73 -25 81 0 9 22 40 49 70 69 75 95 133 99 223 4 65 8 77 31 97 33 29
37 29 56 0z m-345 -110 c0 -35 -20 -43 -42 -16 -25 31 -23 40 12 40 25 0 30
-4 30 -24z"/>
<path d="M44005 17040 c-82 -16 -188 -36 -234 -45 -226 -43 -427 -173 -502
-324 -22 -46 -437 -1045 -435 -1048 0 0 21 1 46 4 l45 5 205 497 c112 273 214
513 227 533 64 104 213 202 369 242 32 8 154 31 269 52 116 20 213 39 217 43
4 4 4 20 0 36 -11 39 -23 40 -207 5z"/>
<path d="M27870 16323 c0 -18 100 -516 104 -521 3 -2 49 5 103 17 131 28 208
27 578 -9 289 -28 365 -33 340 -25 -5 2 -62 18 -125 35 -321 89 -668 263 -957
480 -24 17 -43 28 -43 23z"/>
<path d="M42448 15581 c-40 -8 -60 -20 -164 -97 -146 -107 -267 -240 -307
-336 -30 -71 -141 -771 -351 -2198 -140 -949 -131 -874 -116 -959 24 -141 135
-317 213 -335 26 -6 25 -5 -16 38 -88 92 -152 234 -163 361 -6 60 29 311 221
1590 167 1112 222 1443 254 1508 51 104 186 237 366 359 85 58 115 79 105 77
-3 -1 -21 -5 -42 -8z"/>
</g>
</svg>
